<svg width="300" height="70" viewBox="0 0 300 70" fill="none" xmlns="http://www.w3.org/2000/svg">
<path d="M0 69.51C0.1 69.38 0.19002 69.25 0.27002 69.12C1.65002 67.01 2.34 64.22 2.34 60.84V8.91998C2.34 5.78998 1.74002 3.05999 0.550018 0.829987C0.400018 0.539987 0.219999 0.27001 0.0299988 0.0100098H19.96C19.47 0.10001 18.97 0.199998 18.46 0.309998L16.59 0.709991V57.01C16.59 59.95 16.93 62.27 17.63 64.1C18.45 66.25 19.98 67.84 22.18 68.82C22.78 69.09 23.45 69.31 24.21 69.5H0V69.51ZM33.43 69.41C35.8 68.95 38.06 68.13 40.17 66.95C43.54 65 46.33 62.32 48.5 58.95C50.6 55.69 52.15 52.06 53.12 48.16C54.07 44.33 54.55 40.32 54.55 36.25C54.55 32.03 53.98 27.77 52.86 23.59C51.72 19.33 49.82 15.34 47.23 11.73C44.58 8.04001 40.96 5.03 36.49 2.78C33.92 1.49 31.02 0.57001 27.83 0.0100098H27.99C34.28 0.0100098 39.99 0.979994 44.95 2.89999C49.87 4.79999 54.02 7.46001 57.29 10.79C60.57 14.14 63.08 18 64.74 22.26C66.41 26.55 67.25 31.15 67.25 35.94C67.25 40.6 66.46 44.99 64.91 49C63.38 52.97 61.02 56.54 57.92 59.61C54.82 62.68 50.86 65.12 46.16 66.86C42.34 68.28 38.07 69.13 33.43 69.41Z" fill="#0C0C0C"/>
<path d="M205.05 53.6401H204.64C200.56 62.1801 196.11 68.1701 193.36 69.5201H213.66C210.91 68.1701 205.38 65.6601 205.05 53.6401Z" fill="#0C0C0C"/>
<path d="M234.8 59.6501L218.82 19.9101L229.66 0.0800781H230.44C237.93 22.3501 250.45 51.1701 255.46 62.3101C257.27 66.3101 262.92 69.3401 263.13 69.5101H234.02C236.59 67.4501 236.59 65.0001 234.8 59.6501Z" fill="#0C0C0C"/>
<path d="M78.3 53.6401H77.89C73.81 62.1801 69.36 68.1701 66.61 69.5201H86.91C84.15 68.1701 78.63 65.6601 78.3 53.6401Z" fill="#0C0C0C"/>
<path d="M108.05 59.6501L92.0701 19.9101L102.91 0.0800781H103.69C111.18 22.3501 123.7 51.1701 128.71 62.3101C130.52 66.3101 136.17 69.3401 136.38 69.5101H107.27C109.84 67.4501 109.84 65.0001 108.05 59.6501Z" fill="#0C0C0C"/>
<path d="M173.63 60.85V0.0100098H159.38V60.85C159.38 64.2 158.67 66.97 157.28 69.11C157.19 69.25 157.09 69.39 156.99 69.52H176.11C175.33 68.65 174.76 67.66 174.4 66.54C173.89 64.95 173.63 63.04 173.63 60.85Z" fill="#0C0C0C"/>
<path d="M180.36 0.0100098C183.11 1.36001 188.71 7.40998 190.3 15.89H190.71C192.3 7.41998 197.9 1.36001 200.65 0.0100098H180.36Z" fill="#0C0C0C"/>
<path d="M142.4 15.88H142.81C144.4 7.41 150 1.35 152.75 0H132.45C135.2 1.35 140.81 7.41 142.4 15.88Z" fill="#0C0C0C"/>
<path d="M299.29 69.5301C298.62 68.9501 297.61 68.6601 296.29 68.6601H274.86C273.26 68.6601 272.09 69.0001 271.31 69.6901V62.4201L271.4 62.9301H295.81C297.11 62.9301 298.09 62.7001 298.82 62.2301C298.99 62.1201 299.15 62.0001 299.3 61.8701V69.5301H299.29ZM285.99 59.9401C285.78 59.1301 285.43 58.4201 284.95 57.8101C284.11 56.7401 283.06 55.9801 281.82 55.5601C280.66 55.1601 279.47 54.9601 278.3 54.9601C277.05 54.9601 275.88 55.1901 274.83 55.6501C273.72 56.1301 272.8 56.9201 272.1 58.0101C271.74 58.5701 271.48 59.2001 271.3 59.9201V58.5001C271.3 56.4901 271.67 53.8401 272.41 52.6001C273.14 51.3801 274.04 50.5101 275.09 50.0101C276.19 49.4901 277.33 49.2301 278.5 49.2301C279.86 49.2301 281 49.5101 281.89 50.0501C282.82 50.6201 283.56 51.2801 284.08 52.0101C284.72 52.9001 285.2 53.8901 285.51 54.9701C285.8 55.9501 285.96 58.2901 285.99 59.9401Z" fill="#0C0C0C"/>
<path d="M299.98 45.52C299.93 45.48 299.87 45.44 299.81 45.4C298.95 44.84 297.83 44.55 296.49 44.55H275.5C273.97 44.55 272.79 44.9 271.99 45.59V37.84C272.05 37.89 272.11 37.93 272.17 37.97C273.03 38.52 274.15 38.8 275.49 38.8H296.48C297.21 38.8 297.89 38.73 298.48 38.59C299.02 38.47 299.52 38.2 299.97 37.79V45.52H299.98Z" fill="#0C0C0C"/>
<path d="M278.4 12.78V12.61C274.99 10.37 272.55 6.98 272.01 5.62V13.79C272.55 12.94 274.98 11.82 278.4 12.78Z" fill="#0C0C0C"/>
<path d="M293.6 24.01V24.18C297.01 26.42 299.45 29.81 299.99 31.17V23C299.45 23.86 297.02 24.97 293.6 24.01Z" fill="#0C0C0C"/>
<path d="M300 12.37V0.0100098C299.93 0.0900098 298.52 2.05 297.1 3.09L275.95 21.74C274.7 22.58 272.44 22.56 271.98 21.43V33.15C272.05 33.07 273.46 31.11 274.88 30.06L296.03 12.06C297.28 11.22 299.53 11.24 300 12.37Z" fill="#0C0C0C"/>
</svg>
