<svg width="458" height="107" viewBox="0 0 458 107" fill="none" xmlns="http://www.w3.org/2000/svg">
<path d="M0 106.035C0.152547 105.837 0.289868 105.639 0.411906 105.44C2.51705 102.221 3.56959 97.9654 3.56959 92.8094V13.6071C3.56959 8.83241 2.65434 4.6679 0.839035 1.26611C0.610215 0.823721 0.335601 0.41188 0.0457621 0.0152588H30.4483C29.7009 0.152551 28.9381 0.305079 28.1601 0.47288L25.3075 1.08306V86.9668C25.3075 91.4517 25.8262 94.9908 26.894 97.7824C28.1449 101.062 30.4789 103.488 33.8349 104.983C34.7502 105.394 35.7722 105.73 36.9316 106.02H0V106.035ZM50.9964 105.883C54.6117 105.181 58.0593 103.93 61.278 102.13C66.4188 99.1553 70.6749 95.0671 73.9851 89.9263C77.1886 84.9532 79.5531 79.4158 81.0328 73.4665C82.482 67.6239 83.2142 61.5068 83.2142 55.2981C83.2142 48.8607 82.3447 42.3622 80.6362 35.9857C78.8972 29.4872 75.9988 23.4007 72.0478 17.8937C68.0053 12.2648 62.4831 7.67308 55.6643 4.24078C51.7439 2.27293 47.32 0.86952 42.4538 0.0152588H42.6978C52.293 0.0152588 61.0034 1.49494 68.5697 4.42383C76.075 7.32222 82.4057 11.38 87.394 16.4598C92.3975 21.5701 96.2265 27.4584 98.7587 33.9569C101.306 40.5011 102.588 47.5183 102.588 54.8253C102.588 61.9339 101.383 68.6307 99.018 74.7478C96.6841 80.8039 93.084 86.2498 88.355 90.933C83.6261 95.6162 77.5852 99.3383 70.4155 101.993C64.5883 104.159 58.0745 105.455 50.9964 105.883Z" fill="white"/>
<path d="M312.797 81.8261H312.172C305.948 94.8536 299.159 103.991 294.964 106.051H325.931C321.736 103.991 313.3 100.162 312.797 81.8261Z" fill="white"/>
<path d="M358.18 90.9942L333.803 30.3722L350.339 0.122131H351.529C362.954 34.0943 382.053 78.0582 389.696 95.0519C392.457 101.154 401.076 105.776 401.396 106.035H356.99C360.91 102.893 360.91 99.1554 358.18 90.9942Z" fill="white"/>
<path d="M119.444 81.8261H118.819C112.595 94.8536 105.806 103.991 101.611 106.051H132.578C128.368 103.991 119.948 100.162 119.444 81.8261Z" fill="white"/>
<path d="M164.827 90.9942L140.45 30.3722L156.986 0.122131H158.176C169.601 34.0943 188.7 78.0582 196.343 95.0519C199.104 101.154 207.723 105.776 208.043 106.035H163.637C167.557 102.893 167.557 99.1554 164.827 90.9942Z" fill="white"/>
<path d="M264.867 92.8247V0.0153198H243.129V92.8247C243.129 97.935 242.046 102.161 239.926 105.425C239.788 105.639 239.636 105.852 239.483 106.05H268.65C267.46 104.723 266.591 103.213 266.041 101.505C265.263 99.0791 264.867 96.1655 264.867 92.8247Z" fill="white"/>
<path d="M275.133 0.0153198C279.328 2.0747 287.871 11.3037 290.296 24.2397H290.922C293.347 11.319 301.89 2.0747 306.085 0.0153198H275.133Z" fill="white"/>
<path d="M217.227 24.2244H217.852C220.277 11.3037 228.82 2.05938 233.015 0H202.048C206.243 2.05938 214.801 11.3037 217.227 24.2244Z" fill="white"/>
<path d="M456.557 106.066C455.535 105.181 453.994 104.739 451.981 104.739H419.29C416.849 104.739 415.064 105.257 413.874 106.31V95.2197L414.012 95.9977H451.248C453.231 95.9977 454.726 95.6469 455.84 94.9299C456.099 94.7621 456.343 94.5791 456.572 94.3808V106.066H456.557ZM436.268 91.4366C435.948 90.201 435.414 89.1179 434.682 88.1874C433.4 86.5551 431.799 85.3958 429.907 84.7551C428.138 84.1449 426.322 83.8398 424.537 83.8398C422.631 83.8398 420.846 84.1906 419.244 84.8923C417.551 85.6246 416.147 86.8297 415.08 88.4925C414.53 89.3467 414.134 90.3077 413.859 91.4061V89.2399C413.859 86.1737 414.424 82.1313 415.552 80.2397C416.666 78.3786 418.039 77.0515 419.641 76.2887C421.319 75.4955 423.058 75.0989 424.843 75.0989C426.917 75.0989 428.656 75.526 430.014 76.3497C431.433 77.2192 432.561 78.2261 433.355 79.3397C434.331 80.6973 435.063 82.2075 435.536 83.855C435.978 85.35 436.223 88.9196 436.268 91.4366Z" fill="white"/>
<path d="M457.61 69.4393C457.533 69.3782 457.442 69.3172 457.35 69.2562C456.038 68.4019 454.33 67.9596 452.286 67.9596H420.266C417.932 67.9596 416.132 68.4935 414.912 69.5461V57.7237C415.003 57.8 415.095 57.861 415.186 57.922C416.498 58.761 418.207 59.1881 420.251 59.1881H452.27C453.384 59.1881 454.421 59.0814 455.321 58.8678C456.145 58.6847 456.908 58.2729 457.594 57.6474V69.4393H457.61Z" fill="white"/>
<path d="M424.69 19.4954V19.2361C419.488 15.819 415.766 10.6477 414.942 8.57306V21.0361C415.766 19.7395 419.473 18.031 424.69 19.4954Z" fill="white"/>
<path d="M447.877 36.6264V36.8857C453.079 40.3028 456.801 45.4741 457.625 47.5487V35.0857C456.801 36.3976 453.094 38.0909 447.877 36.6264Z" fill="white"/>
<path d="M457.64 18.87V0.0152588C457.533 0.137296 455.382 3.12719 453.216 4.71368L420.952 33.1636C419.046 34.445 415.598 34.4145 414.896 32.6907V50.5692C415.003 50.4472 417.154 47.4572 419.32 45.8555L451.584 18.3971C453.491 17.1157 456.923 17.1462 457.64 18.87Z" fill="white"/>
</svg>
