<svg width="250" height="95" viewBox="0 0 250 95" fill="none" xmlns="http://www.w3.org/2000/svg">
<path d="M60.53 59.3701C59.08 61.1301 57.04 62.6301 54.4 63.8701C51.76 65.1101 48.37 65.7301 44.23 65.7301C39.05 65.7301 34.85 64.1501 31.63 60.9801C28.4 57.8101 26.79 53.6901 26.79 48.6301V39.9201C26.79 34.9001 28.36 30.7901 31.5 27.6001C34.64 24.4101 38.68 22.8201 43.63 22.8201C48.96 22.8201 52.98 24.0101 55.7 26.3901C58.42 28.7701 59.73 32.0201 59.64 36.1401L59.58 36.3101H50.5C50.5 34.2701 49.96 32.7501 48.87 31.7601C47.78 30.7701 46.14 30.2701 43.94 30.2701C41.69 30.2701 39.87 31.1601 38.5 32.9301C37.13 34.7001 36.44 37.0201 36.44 39.8601V48.6301C36.44 51.5301 37.12 53.8701 38.49 55.6301C39.86 57.4001 41.77 58.2801 44.23 58.2801C46.01 58.2801 47.4 58.1401 48.43 57.8501C49.45 57.5601 50.26 57.1801 50.85 56.7001V49.2501H43.46V42.8301H60.53V59.3701Z" fill="white"/>
<path d="M98.8997 48.0301C98.8997 53.1701 97.2697 57.4001 94.0197 60.7301C90.7597 64.0601 86.5097 65.7301 81.2597 65.7301C75.9697 65.7301 71.6797 64.0601 68.3997 60.7301C65.1197 57.4001 63.4697 53.1601 63.4697 48.0301V40.5301C63.4697 35.4101 65.1097 31.1801 68.3797 27.8401C71.6497 24.5001 75.9297 22.8301 81.1997 22.8301C86.4297 22.8301 90.6897 24.5001 93.9797 27.8401C97.2597 31.1801 98.9097 35.4101 98.9097 40.5301V48.0301H98.8997ZM89.2497 40.4601C89.2497 37.4801 88.5497 35.0401 87.1397 33.1301C85.7397 31.2201 83.7597 30.2701 81.1997 30.2701C78.5797 30.2701 76.5797 31.2201 75.1997 33.1201C73.8197 35.0201 73.1197 37.4701 73.1197 40.4701V48.0301C73.1197 51.0501 73.8197 53.5101 75.2297 55.4201C76.6297 57.3301 78.6397 58.2801 81.2597 58.2801C83.7997 58.2801 85.7697 57.3301 87.1597 55.4201C88.5497 53.5101 89.2497 51.0501 89.2497 48.0301V40.4601Z" fill="white"/>
<path d="M123.9 52.6099H124.07L133.49 23.4199H146.29V65.1299H136.61V38.2599L136.44 38.2299L127.25 65.1299H120.75L111.73 38.6299L111.56 38.6599V65.1299H101.88V23.4199H114.57L123.9 52.6099Z" fill="white"/>
<path d="M210.36 60.75L209.06 65.13H218.94L217.63 60.75H210.36Z" fill="white"/>
<path d="M199.77 51.7399C200.42 51.0599 200.74 50.1899 200.74 49.1299C200.74 48.0399 200.42 47.1499 199.77 46.4599C199.13 45.7699 198.18 45.4199 196.94 45.4199H193.28V52.7599H196.94C198.18 52.7599 199.12 52.4199 199.77 51.7399Z" fill="white"/>
<path d="M213.93 48.79L211.67 56.38H216.32L214.03 48.79H213.93Z" fill="white"/>
<path d="M179.74 27.8301C177.31 25.3601 174.35 23.8001 170.85 23.1601C169.62 22.9301 168.32 22.8201 166.96 22.8201C161.69 22.8201 157.42 24.4901 154.14 27.8301C150.86 31.1701 149.23 35.4001 149.23 40.5201V48.0201C149.23 53.1601 150.87 57.3901 154.16 60.7201C157.44 64.0501 161.73 65.7201 167.02 65.7201C168.83 65.7201 170.53 65.5201 172.1 65.1201C175.09 64.3701 177.65 62.9001 179.78 60.7201C183.04 57.3901 184.66 53.1501 184.66 48.0201V40.5201C184.67 35.4001 183.03 31.1701 179.74 27.8301ZM175.02 48.0301C175.02 51.0501 174.32 53.5101 172.93 55.4201C172.46 56.0601 171.92 56.6001 171.32 57.0201C170.14 57.8601 168.71 58.2801 167.02 58.2801C164.4 58.2801 162.39 57.3301 160.99 55.4201C159.59 53.5101 158.88 51.0501 158.88 48.0301V40.4701C158.88 37.4701 159.57 35.0201 160.96 33.1201C162.34 31.2201 164.34 30.2701 166.96 30.2701C168.5 30.2701 169.84 30.6201 170.96 31.3201C171.7 31.7801 172.35 32.3801 172.9 33.1401C174.3 35.0501 175.01 37.4901 175.01 40.4701V48.0301H175.02Z" fill="white"/>
<path d="M32.9303 73.77V74.79H30.3003V76.41H32.3203V77.42H30.3003V80.09H29.0303V73.77H32.9303Z" fill="white"/>
<path d="M36.7104 73.77V80.09H35.4404V73.77H36.7104Z" fill="white"/>
<path d="M44.9803 80.09H43.7103L40.8403 75.75V80.09H39.5703V73.76H40.8403L43.7103 78.11V73.76H44.9803V80.09Z" fill="white"/>
<path d="M51.7102 78.89H49.2002L48.7802 80.09H47.4502L49.7202 73.76H51.2002L53.4702 80.09H52.1302L51.7102 78.89ZM51.3702 77.88L50.4602 75.24L49.5502 77.88H51.3702Z" fill="white"/>
<path d="M61.3407 80.09H60.0707L57.2007 75.75V80.09H55.9307V73.76H57.2007L60.0707 78.11V73.76H61.3407V80.09Z" fill="white"/>
<path d="M64.3204 75.2499C64.6004 74.7599 64.9804 74.3699 65.4704 74.0999C65.9604 73.8299 66.5004 73.6899 67.1004 73.6899C67.8104 73.6899 68.4304 73.8699 68.9604 74.2299C69.4904 74.5899 69.8604 75.0899 70.0704 75.7299H68.6104C68.4704 75.4299 68.2604 75.1999 68.0004 75.0499C67.7404 74.8999 67.4304 74.8199 67.0904 74.8199C66.7204 74.8199 66.3904 74.9099 66.1104 75.0799C65.8204 75.2499 65.6004 75.4999 65.4404 75.8099C65.2804 76.1199 65.2004 76.4899 65.2004 76.9099C65.2004 77.3299 65.2804 77.6899 65.4404 78.0099C65.6004 78.3299 65.8204 78.5699 66.1104 78.7399C66.4004 78.9099 66.7204 78.9999 67.0904 78.9999C67.4304 78.9999 67.7404 78.9199 68.0004 78.7699C68.2604 78.6199 68.4704 78.3899 68.6104 78.0899H70.0704C69.8604 78.7399 69.4904 79.2399 68.9604 79.5999C68.4304 79.9599 67.8104 80.1399 67.1004 80.1399C66.5004 80.1399 65.9504 79.9999 65.4704 79.7299C64.9804 79.4599 64.6004 79.0699 64.3204 78.5799C64.0404 78.0899 63.9004 77.5399 63.9004 76.9099C63.9004 76.2999 64.0404 75.7499 64.3204 75.2499Z" fill="white"/>
<path d="M74.0405 73.77V80.09H72.7705V73.77H74.0405Z" fill="white"/>
<path d="M80.7807 78.89H78.2607L77.8407 80.09H76.5107L78.7807 73.76H80.2607L82.5307 80.09H81.1907L80.7807 78.89ZM80.4307 77.88L79.5207 75.24L78.6107 77.88H80.4307Z" fill="white"/>
<path d="M86.27 79.09H88.35V80.1H85V73.78H86.27V79.09Z" fill="white"/>
<path d="M95.8003 73.77V80.09H94.5303V73.77H95.8003Z" fill="white"/>
<path d="M104.07 80.09H102.8L99.9302 75.75V80.09H98.6602V73.76H99.9302L102.8 78.11V73.76H104.07V80.09Z" fill="white"/>
<path d="M111.231 73.77V74.79H109.551V80.09H108.281V74.79H106.601V73.77H111.231Z" fill="white"/>
<path d="M115.041 74.8V76.38H117.171V77.39H115.041V79.07H117.441V80.1H113.771V73.77H117.441V74.8H115.041Z" fill="white"/>
<path d="M121.47 79.09H123.55V80.1H120.2V73.78H121.47V79.09Z" fill="white"/>
<path d="M127.241 79.09H129.321V80.1H125.971V73.78H127.241V79.09Z" fill="white"/>
<path d="M133.01 73.77V80.09H131.74V73.77H133.01Z" fill="white"/>
<path d="M140.27 75.6799C140.13 75.4099 139.93 75.2099 139.67 75.0699C139.42 74.9299 139.12 74.8599 138.78 74.8599C138.41 74.8599 138.07 74.9399 137.78 75.1099C137.49 75.2799 137.26 75.5199 137.1 75.8299C136.94 76.1399 136.86 76.5099 136.86 76.9199C136.86 77.3399 136.94 77.7099 137.11 78.0199C137.28 78.3299 137.51 78.5799 137.8 78.7399C138.1 78.9099 138.44 78.9899 138.83 78.9899C139.31 78.9899 139.71 78.8599 140.02 78.6099C140.33 78.3499 140.53 77.9999 140.63 77.5399H138.46V76.5699H141.88V77.6699C141.8 78.1099 141.61 78.5199 141.34 78.8899C141.06 79.2599 140.7 79.5599 140.27 79.7899C139.83 80.0199 139.34 80.1299 138.8 80.1299C138.19 80.1299 137.64 79.9899 137.15 79.7199C136.66 79.4499 136.27 79.0599 135.99 78.5699C135.71 78.0799 135.57 77.5299 135.57 76.8999C135.57 76.2799 135.71 75.7199 135.99 75.2299C136.27 74.7399 136.66 74.3499 137.15 74.0799C137.64 73.8099 138.19 73.6699 138.79 73.6699C139.5 73.6699 140.12 73.8399 140.65 74.1899C141.18 74.5399 141.54 75.0199 141.74 75.6499H140.27V75.6799Z" fill="white"/>
<path d="M145.701 74.8V76.38H147.831V77.39H145.701V79.07H148.101V80.1H144.431V73.77H148.101V74.8H145.701Z" fill="white"/>
<path d="M156.27 80.09H155L152.13 75.75V80.09H150.86V73.76H152.13L155 78.11V73.76H156.27V80.09Z" fill="white"/>
<path d="M159.25 75.2499C159.53 74.7599 159.91 74.3699 160.4 74.0999C160.89 73.8299 161.43 73.6899 162.03 73.6899C162.74 73.6899 163.36 73.8699 163.89 74.2299C164.42 74.5899 164.79 75.0899 165 75.7299H163.54C163.4 75.4299 163.19 75.1999 162.93 75.0499C162.67 74.8999 162.36 74.8199 162.02 74.8199C161.65 74.8199 161.32 74.9099 161.04 75.0799C160.75 75.2499 160.53 75.4999 160.37 75.8099C160.21 76.1199 160.13 76.4899 160.13 76.9099C160.13 77.3299 160.21 77.6899 160.37 78.0099C160.53 78.3299 160.75 78.5699 161.04 78.7399C161.33 78.9099 161.65 78.9999 162.02 78.9999C162.36 78.9999 162.67 78.9199 162.93 78.7699C163.19 78.6199 163.4 78.3899 163.54 78.0899H165C164.79 78.7399 164.42 79.2399 163.89 79.5999C163.36 79.9599 162.74 80.1399 162.03 80.1399C161.43 80.1399 160.88 79.9999 160.4 79.7299C159.91 79.4599 159.53 79.0699 159.25 78.5799C158.97 78.0899 158.83 77.5399 158.83 76.9099C158.83 76.2999 158.97 75.7499 159.25 75.2499Z" fill="white"/>
<path d="M168.97 74.8V76.38H171.1V77.39H168.97V79.07H171.37V80.1H167.7V73.77H171.37V74.8H168.97Z" fill="white"/>
<path d="M178.89 79.9299C178.54 79.7799 178.26 79.5599 178.05 79.2799C177.84 78.9999 177.74 78.6599 177.73 78.2699H179.09C179.11 78.5299 179.2 78.7399 179.37 78.8899C179.54 79.0399 179.76 79.1199 180.05 79.1199C180.35 79.1199 180.58 79.0499 180.75 78.9099C180.92 78.7699 181 78.5799 181 78.3499C181 78.1599 180.94 78.0099 180.83 77.8899C180.72 77.7699 180.57 77.6699 180.4 77.5999C180.23 77.5299 179.99 77.4499 179.69 77.3699C179.28 77.2499 178.95 77.1299 178.69 77.0099C178.43 76.8899 178.21 76.7099 178.03 76.4799C177.85 76.2399 177.75 75.9199 177.75 75.5199C177.75 75.1499 177.84 74.8199 178.03 74.5399C178.22 74.2599 178.48 74.0499 178.82 73.8999C179.16 73.7499 179.54 73.6799 179.98 73.6799C180.63 73.6799 181.16 73.8399 181.57 74.1599C181.98 74.4799 182.2 74.9199 182.24 75.4899H180.85C180.84 75.2699 180.75 75.0899 180.57 74.9499C180.4 74.8099 180.17 74.7399 179.89 74.7399C179.64 74.7399 179.44 74.7999 179.3 74.9299C179.15 75.0599 179.08 75.2399 179.08 75.4799C179.08 75.6499 179.14 75.7899 179.25 75.8999C179.36 76.0099 179.5 76.0999 179.67 76.1699C179.84 76.2399 180.07 76.3199 180.37 76.4099C180.78 76.5299 181.12 76.6499 181.38 76.7699C181.64 76.8899 181.86 77.0699 182.05 77.3099C182.24 77.5499 182.33 77.8699 182.33 78.2599C182.33 78.5999 182.24 78.9099 182.07 79.1999C181.89 79.4899 181.64 79.7199 181.3 79.8899C180.96 80.0599 180.56 80.1499 180.1 80.1499C179.64 80.1599 179.25 80.0799 178.89 79.9299Z" fill="white"/>
<path d="M186.3 74.8V76.38H188.43V77.39H186.3V79.07H188.7V80.1H185.03V73.77H188.7V74.8H186.3Z" fill="white"/>
<path d="M194.72 80.09L193.33 77.63H192.73V80.09H191.46V73.77H193.83C194.32 73.77 194.74 73.86 195.08 74.03C195.42 74.2 195.68 74.43 195.85 74.73C196.02 75.02 196.11 75.35 196.11 75.71C196.11 76.13 195.99 76.5 195.75 76.84C195.51 77.18 195.15 77.41 194.67 77.53L196.18 80.09H194.72ZM192.73 76.68H193.79C194.13 76.68 194.39 76.6 194.56 76.43C194.73 76.26 194.81 76.03 194.81 75.74C194.81 75.45 194.73 75.23 194.56 75.07C194.39 74.91 194.13 74.83 193.79 74.83H192.73V76.68Z" fill="white"/>
<path d="M204.55 73.77L202.23 80.09H200.69L198.37 73.77H199.73L201.47 78.8L203.2 73.77H204.55Z" fill="white"/>
<path d="M208.201 73.77V80.09H206.931V73.77H208.201Z" fill="white"/>
<path d="M211.17 75.2499C211.45 74.7599 211.83 74.3699 212.32 74.0999C212.81 73.8299 213.35 73.6899 213.95 73.6899C214.66 73.6899 215.28 73.8699 215.81 74.2299C216.34 74.5899 216.71 75.0899 216.92 75.7299H215.46C215.32 75.4299 215.11 75.1999 214.85 75.0499C214.59 74.8999 214.28 74.8199 213.94 74.8199C213.57 74.8199 213.24 74.9099 212.96 75.0799C212.67 75.2499 212.45 75.4999 212.29 75.8099C212.13 76.1199 212.05 76.4899 212.05 76.9099C212.05 77.3299 212.13 77.6899 212.29 78.0099C212.45 78.3299 212.67 78.5699 212.96 78.7399C213.25 78.9099 213.57 78.9999 213.94 78.9999C214.28 78.9999 214.59 78.9199 214.85 78.7699C215.11 78.6199 215.32 78.3899 215.46 78.0899H216.92C216.71 78.7399 216.34 79.2399 215.81 79.5999C215.28 79.9599 214.66 80.1399 213.95 80.1399C213.35 80.1399 212.8 79.9999 212.32 79.7299C211.83 79.4599 211.45 79.0699 211.17 78.5799C210.89 78.0899 210.75 77.5399 210.75 76.9099C210.75 76.2999 210.89 75.7499 211.17 75.2499Z" fill="white"/>
<path d="M220.89 74.8V76.38H223.02V77.39H220.89V79.07H223.29V80.1H219.62V73.77H223.29V74.8H220.89Z" fill="white"/>
<path d="M10.9199 41.6801C10.0099 41.6801 9.22992 40.9701 9.16992 40.0501C9.12992 39.4701 8.26992 25.7801 18.5499 15.5001C28.9799 5.05009 42.1999 5.93009 42.7499 5.98009C43.7199 6.05009 44.4399 6.90009 44.3699 7.87009C44.2999 8.84009 43.4499 9.56009 42.4799 9.49009C42.3599 9.48009 30.2899 8.72009 21.0299 17.9801C11.8699 27.1401 12.6599 39.6701 12.6699 39.7901C12.7399 40.7601 12.0099 41.6001 11.0399 41.6701C10.9999 41.6801 10.9599 41.6801 10.9199 41.6801Z" fill="white"/>
<path d="M19.1998 41.6801C18.2898 41.6801 17.5098 40.9701 17.4498 40.0501C17.4198 39.6101 16.7698 29.2701 24.5298 21.5001C32.4098 13.6201 42.3998 14.2901 42.8198 14.3201C43.7898 14.3901 44.5098 15.2401 44.4398 16.2101C44.3698 17.1801 43.5198 17.9001 42.5498 17.8301C42.4698 17.8201 33.7198 17.2801 27.0098 23.9901C20.3698 30.6301 20.9398 39.7001 20.9498 39.7901C21.0198 40.7601 20.2898 41.6001 19.3198 41.6701C19.2798 41.6801 19.2398 41.6801 19.1998 41.6801Z" fill="white"/>
<path d="M219.88 23.2899L170.85 23.1499C174.34 23.7899 177.31 25.3499 179.74 27.8199C183.02 31.1599 184.67 35.3899 184.67 40.5099V48.0099C184.67 53.1499 183.04 57.3799 179.79 60.7099C177.66 62.8899 175.1 64.3499 172.11 65.1099H187.61V42.7099V41.5699V41.0399H187.81H196.94C199.84 41.0399 202.14 41.7799 203.84 43.2599C205.54 44.7399 206.39 46.6799 206.39 49.0899C206.39 51.4999 205.54 53.4399 203.84 54.9099C202.14 56.3799 199.84 57.1199 196.94 57.1199H193.28V65.1199H203.09L210.94 41.0499H213.98V41.0699L214 41.0499H217.04L228.79 76.9899H237.41L219.88 23.2899Z" fill="white"/>
<path d="M219.88 23.2899L170.85 23.1499C174.34 23.7899 177.31 25.3499 179.74 27.8199C183.02 31.1599 184.67 35.3899 184.67 40.5099V48.0099C184.67 53.1499 183.04 57.3799 179.79 60.7099C177.66 62.8899 175.1 64.3499 172.11 65.1099H187.61V42.7099V41.5699V41.0399H187.81H196.94C199.84 41.0399 202.14 41.7799 203.84 43.2599C205.54 44.7399 206.39 46.6799 206.39 49.0899C206.39 51.4999 205.54 53.4399 203.84 54.9099C202.14 56.3799 199.84 57.1199 196.94 57.1199H193.28V65.1199H203.09L210.94 41.0499H213.98V41.0699L214 41.0499H217.04L228.79 76.9899H237.41L219.88 23.2899Z" fill="white"/>
<path d="M229.85 80.23L211.19 23.27L219.88 23.29L238.46 80.23H229.85Z" fill="white"/>
<path d="M26.75 84.6799H31.42" stroke="white" stroke-width="0.5" stroke-miterlimit="10" stroke-dasharray="12 12"/>
<path d="M226.02 15.9601L224.56 13.3801H223.93V15.9601H222.6V9.33008H225.09C225.6 9.33008 226.04 9.42008 226.4 9.60008C226.76 9.78008 227.03 10.0201 227.21 10.3301C227.39 10.6401 227.48 10.9801 227.48 11.3601C227.48 11.8001 227.35 12.1901 227.1 12.5401C226.85 12.8901 226.47 13.1301 225.97 13.2701L227.56 15.9601H226.02ZM223.93 12.3801H225.04C225.4 12.3801 225.67 12.2901 225.85 12.1201C226.03 11.9501 226.12 11.7001 226.12 11.3901C226.12 11.0901 226.03 10.8501 225.85 10.6801C225.67 10.5101 225.4 10.4301 225.04 10.4301H223.93V12.3801Z" fill="white"/>
<path d="M224.73 19.03C221.21 19.03 218.35 16.17 218.35 12.65C218.35 9.13002 221.21 6.27002 224.73 6.27002C228.25 6.27002 231.11 9.13002 231.11 12.65C231.11 16.17 228.25 19.03 224.73 19.03ZM224.73 7.06002C221.65 7.06002 219.14 9.57002 219.14 12.65C219.14 15.73 221.65 18.24 224.73 18.24C227.81 18.24 230.32 15.73 230.32 12.65C230.32 9.57002 227.81 7.06002 224.73 7.06002Z" fill="white"/>
</svg>
