<svg width="108" height="86" viewBox="0 0 108 86" fill="none" xmlns="http://www.w3.org/2000/svg">
<path d="M42.5003 40.2852H21.9971V43.8243H42.5003V40.2852Z" fill="white"/>
<path d="M42.5003 35.0383H21.9971V38.4563H42.5003V35.0383Z" fill="white"/>
<path d="M42.5003 29.8816H21.9971V33.207H42.5003V29.8816Z" fill="white"/>
<path d="M36.7296 85.6269C42.5597 85.6269 47.2882 81.0236 47.2882 75.3443C47.2882 69.665 42.562 65.0618 36.7296 65.0618C30.8971 65.0618 26.1709 69.665 26.1709 75.3443C26.1709 81.0236 30.8995 85.6269 36.7296 85.6269ZM36.7296 69.8812C39.7474 69.8812 42.1941 72.3135 42.1941 75.3134C42.1941 78.3134 39.7474 80.7457 36.7296 80.7457C33.7118 80.7457 31.2651 78.3134 31.2651 75.3134C31.2674 72.3135 33.7118 69.8812 36.7296 69.8812Z" fill="white"/>
<path d="M46.6746 7.60393L43.4824 4.7251V5.50181V5.65621V58.7151H46.6746V7.60393Z" fill="white"/>
<path d="M48.6697 8.34033L48.6387 8.84389V58.7152H52.077V10.9341L48.6697 8.34033Z" fill="white"/>
<path d="M54.041 11.9412V58.7151H57.1114V14.5967L54.041 11.9412Z" fill="white"/>
<path d="M68.0356 14.5967H64.3535V58.715H68.0356V14.5967Z" fill="white"/>
<path d="M72.4558 25.8032V14.5967H70.002V58.715H72.4558V47.5275H71.6793V25.8032H72.4558Z" fill="white"/>
<path d="M61.7754 84.9548H72.3962V80.7459H66.6258V77.2043H72.3962V73.2994H66.6258V69.7602H72.3962V65.7341H61.7754V84.9548Z" fill="white"/>
<path d="M21.0149 58.7152V18.9436L17.5742 21.3569V58.7152H21.0149Z" fill="white"/>
<path d="M56.3137 84.9548V69.8814H60.3638V65.7341H47.5352V69.8814H51.3414V84.9548H56.3137Z" fill="white"/>
<path d="M62.3893 14.5967H59.0752V58.715H62.3893V14.5967Z" fill="white"/>
<path d="M11.952 76.9405H19.1751V84.9547H24.1474V65.0641L19.1751 62.1331V73.2588H11.952V65.8456L7.08008 68.4204V84.9547H11.952V76.9405Z" fill="white"/>
<path d="M92.7127 19.4686C91.6423 18.6182 90.493 17.8629 89.2744 17.2168V56.0905C90.493 55.4445 91.6423 54.6891 92.7127 53.8388V19.4686Z" fill="white"/>
<path d="M94.6797 21.2285V52.0833C95.9532 50.8007 97.0667 49.3684 97.9938 47.8102V25.4993C97.0667 23.9435 95.9508 22.5088 94.6797 21.2285Z" fill="white"/>
<path d="M95.9988 85.0806C98.8159 84.4037 100.491 82.5034 100.715 79.7268C100.971 76.5748 99.9293 74.8836 96.9498 73.6508C96.3859 73.418 95.7909 73.2565 95.2223 73.0332C94.6177 72.7933 93.9774 72.5938 93.4422 72.2423C92.3215 71.5059 92.3287 70.3943 93.478 69.7055C93.9368 69.4299 94.5843 69.2399 95.0908 69.3254C96.1111 69.4964 97.0931 69.8836 98.2233 70.2209C98.7585 69.1995 99.3368 68.0998 100.011 66.8124C97.0358 65.4632 94.1685 64.639 91.146 65.9502C88.6491 67.0357 87.6861 69.0831 87.722 71.7458C87.7554 74.1591 88.9979 75.589 91.1436 76.4109C92.2092 76.8218 93.2988 77.1757 94.3501 77.6199C95.2294 77.9928 95.9319 78.6104 95.7336 79.665C95.5257 80.7671 94.7109 81.3111 93.6142 81.3229C92.9715 81.3301 92.2785 81.2944 91.6931 81.064C90.7613 80.6959 89.0624 79.2968 89.0624 79.2968L87.7722 81.722L86.9287 83.2327C86.9287 83.2327 87.3755 83.627 87.7268 83.8217C90.336 85.2516 93.067 85.7861 95.9988 85.0806Z" fill="white"/>
<path d="M99.958 29.7937V43.5157C100.675 41.3565 101.062 39.0501 101.062 36.6559C101.062 34.2592 100.675 31.9552 99.958 29.7937Z" fill="white"/>
<path d="M76.6301 47.5276H74.4199V58.7151H76.6301V47.5276Z" fill="white"/>
<path d="M76.6301 14.5967H74.4199V25.8032H76.6301V14.5967Z" fill="white"/>
<path d="M78.5938 58.715C78.6248 58.715 78.6559 58.7174 78.6869 58.7174C79.7383 58.7174 80.7729 58.6438 81.786 58.506V46.0857C80.823 46.7698 79.743 47.2234 78.5938 47.3826V58.715Z" fill="white"/>
<path d="M81.786 14.8081C80.7729 14.6703 79.7383 14.5967 78.6869 14.5967C78.6559 14.5967 78.6248 14.5967 78.5938 14.5967V26.093C79.743 26.2521 80.823 26.7058 81.786 27.3899V14.8081Z" fill="white"/>
<path d="M10.3395 58.715V26.4351L7.1377 28.6797V58.715H10.3395Z" fill="white"/>
<path d="M83.7529 58.1472C84.9811 57.8669 86.171 57.4869 87.3131 57.0166V16.2949C86.171 15.8246 84.9811 15.4421 83.7529 15.1619V29.3138C85.2128 31.2377 86.1136 33.8529 86.1136 36.7365C86.1136 39.6201 85.2152 42.2329 83.7529 44.1592V58.1472Z" fill="white"/>
<path d="M15.6176 58.7151V22.7297L12.2939 25.0623V58.7151H15.6176Z" fill="white"/>
<path d="M75.0342 84.9548H85.7171V80.7459H79.8225V65.7341H75.0342V84.9548Z" fill="white"/>
</svg>
