<svg width="385" height="81" viewBox="0 0 385 81" fill="none" xmlns="http://www.w3.org/2000/svg">
<g clip-path="url(#clip0_383_260)">
<path d="M124.211 -1.10962H123.003V78.249H124.211V-1.10962Z" fill="white"/>
<path d="M358.545 10.9304L353.049 24.1623H354.34L364.788 10.9304H358.545Z" fill="white"/>
<path d="M164.161 42.9949C161.071 43.0165 158.017 42.3192 155.248 40.9569L152.962 42.9949H151.909L151.202 30.0718L152.434 29.9536C156.128 38.348 160.465 41.0293 164.51 41.0293C168.733 41.0293 171.195 38.2914 171.195 34.6189C171.195 31.1195 169.844 29.4294 164.334 27.1541C162.462 26.3993 160.289 25.6404 158.474 24.7683C154.37 22.7277 152.201 19.5171 152.201 15.2655C152.201 8.32581 158.239 4.13073 164.161 4.13073C167.093 4.13073 169.084 4.94878 171.017 6.05309L173.304 4.08496H174.295L175.284 15.5076L174.114 15.6849C170.907 9.24621 167.447 6.11218 163.633 6.11218C160.289 6.11218 158.061 8.32747 158.061 11.7678C158.061 14.5082 159.24 16.6053 163.399 18.4145C165.449 19.3465 167.86 20.1637 170.024 21.2115C174.771 23.4842 177 26.4626 177 30.7692C177 38.4636 170.493 43.0082 164.161 43.0082" fill="white"/>
<path d="M194.937 43.0565C186.024 43.0565 181.634 36.7011 181.634 28.9434C181.634 21.7716 186.671 14.896 195.701 14.896C204.613 14.896 208.904 21.1924 208.904 28.8843C208.904 36.1061 203.98 43.0499 194.95 43.0499L194.937 43.0565ZM195.188 16.5271C191.069 16.5337 188.537 21.0808 188.537 29.0699C188.537 36.9474 191.234 41.4204 195.398 41.4204C199.689 41.4204 202.02 36.88 202.02 28.891C202.02 21.0134 199.502 16.5337 195.164 16.5337" fill="white"/>
<path d="M221.614 42.8201C216.992 42.8201 215.517 40.5474 215.517 36.3507V18.9113H211.179V18.1065L216.572 13.8399L220.863 8.30249H221.741V15.8912H230.654V18.9113H221.741V34.0106C221.741 36.3424 222.095 37.7396 223.265 38.5577C224.255 39.2575 225.612 39.4939 227.556 39.4939C228.494 39.4939 229.665 39.4348 230.781 39.3715L230.838 40.1896C228.551 41.5868 224.8 42.816 221.635 42.816" fill="white"/>
<path d="M248.991 19.3331C246.871 19.309 244.774 19.81 242.898 20.7895V40.0838L246.179 41.3088V42.1227H232.929V41.3088L236.622 40.0838V4.87629L232.577 2.25155V1.66985L242.676 -1.07056L242.911 -0.895796V19.5079L243.146 19.6236C246.606 16.3605 249.769 14.9042 252.934 14.9042C258.216 14.9042 260.442 18.8696 260.442 23.0072V40.0755L264.135 41.3088V42.1227H250.872V41.3088L254.156 40.0838V25.3956C254.156 21.6033 252.629 19.3331 248.991 19.3331Z" fill="white"/>
<path d="M272.799 26.9685C272.799 34.3692 274.908 39.2076 281.533 39.2076C284.465 39.2076 286.867 38.6259 290.387 37.3443L290.734 38.0442C287.162 41.1324 283.178 43.059 279.423 43.059C271.394 43.059 266.113 37.5781 266.113 29.4776C266.113 21.1407 272.446 14.9026 279.595 14.9026C287.34 14.9026 291.086 20.088 291.026 26.9685H272.799ZM284.466 24.9979C284.231 19.5196 282.647 16.5445 279.185 16.5445C275.784 16.5445 273.147 20.0988 272.852 25.5222L284.466 24.9979Z" fill="white"/>
<path d="M306.627 43.0564C303.581 43.0564 299.533 42.354 296.724 41.541V4.87711L292.624 2.25071V1.6715L302.758 -1.06641L302.996 -0.891647V18.6324L303.233 18.7506C305.283 16.7125 308.097 14.9034 311.73 14.9034C317.299 14.9034 322.341 19.9756 322.341 28.3125C322.341 36.6494 316.009 43.0597 306.631 43.0597L306.627 43.0564ZM307.619 18.9786C306.031 18.9719 304.458 19.2915 302.997 19.9148V38.387C304.671 40.1104 306.979 41.0791 309.389 41.0683C312.845 41.0683 315.717 37.98 315.717 29.7613C315.717 22.5395 312.611 18.9786 307.627 18.9786" fill="white"/>
<path d="M338.408 43.9269C335.477 51.0988 332.727 54.2453 329.089 54.2453C325.979 54.2453 324.516 52.4369 324.516 50.5728C324.516 48.7645 326.165 47.2507 328.031 47.2507C330.01 47.2507 331.196 48.2984 332.606 50.0435C333.895 48.5389 334.977 46.872 335.828 45.0878L336.818 42.8792L326.445 17.99L322.866 16.5928V15.8313H337.166V16.5903L333.415 17.9875L339.748 35.0558H340.042L345.785 18.3836L342.389 16.5753V15.8313H352.468V16.5903L348.658 18.5126L338.408 43.9269Z" fill="white"/>
<path d="M371.823 43.0565C368.856 43.0889 365.908 42.5538 363.144 41.482L363.087 33.7875L364.259 33.6719C367.425 39.2051 369.829 41.3022 372.935 41.3022C375.691 41.3022 377.391 39.5571 377.391 36.8733C377.391 33.8441 374.285 32.6782 370.944 31.3359C367.251 29.763 363.323 28.0113 363.323 23.1762C363.323 18.5809 367.425 14.8984 373.408 14.8984C375.694 14.8984 378.914 15.3645 380.5 15.9478L380.676 22.8833L379.562 23.1762C376.69 18.4569 374.816 16.6477 372.114 16.6477C369.655 16.6477 368.131 18.288 368.131 20.3768C368.131 23.4101 371.297 24.6434 374.635 25.9757C378.335 27.4895 382.321 29.2388 382.321 34.182C382.321 39.6012 377.51 43.044 371.826 43.044" fill="white"/>
<path d="M375.665 78.2423H376.985V72.2647L381.573 64.6759H380.17L376.357 71.1495L372.522 64.6759H371.09L375.663 72.2655L375.665 78.2423ZM363.884 78.2423H365.204V65.8851H369.612V64.6776H359.492V65.8851H363.895L363.884 78.2423ZM352.255 78.2423H360.237V77.0481H353.561V64.6776H352.241L352.255 78.2423ZM341.01 72.9055L343.361 66.1755H343.401L345.741 72.9204L341.01 72.9055ZM337.874 78.2423H339.145L340.603 74.0605H346.133L347.59 78.2423H348.953L344.123 64.621H342.7L337.874 78.2423ZM327.661 78.2423H336.198V77.0481H328.967V71.6613H334.074V70.4871H328.967V65.8917H335.81V64.6842H327.661V78.2423ZM315.475 70.9939V65.8476H318.645C320.932 65.8476 322.186 66.5034 322.186 68.3825C322.186 70.3506 320.908 70.9831 318.664 70.9831L315.475 70.9939ZM314.184 78.2423H315.475V72.1532H318.865L322.202 78.2423H323.673L320.231 72.005C322.21 71.6397 323.493 70.542 323.493 68.3417C323.493 65.9575 321.799 64.6759 318.755 64.6759H314.182L314.184 78.2423ZM298.387 78.2423H306.369V77.0481H299.697V64.6776H298.377L298.387 78.2423ZM286.808 72.9055L289.148 66.1755H289.188L291.533 72.9055H286.808ZM283.675 78.2423H284.947L286.403 74.0564H291.933L293.389 78.2381H294.755L289.925 64.6168H288.506L283.675 78.2423ZM269.939 78.2423H271.173V66.7115H271.212L278.986 78.2415H280.148V64.6759H278.914V75.8581H278.879L271.359 64.6759H269.955L269.939 78.2423ZM260.004 77.3369C257.422 77.3369 255.56 75.154 255.56 71.4708C255.56 67.7875 257.421 65.618 260.004 65.618C262.586 65.618 264.445 67.785 264.445 71.4708C264.445 75.1557 262.586 77.3369 260.004 77.3369ZM260.004 78.5044C263.341 78.5044 265.754 75.7199 265.754 71.4708C265.754 67.2216 263.341 64.4304 260.004 64.4304C256.667 64.4304 254.254 67.2166 254.254 71.4708C254.254 75.7249 256.667 78.5044 260.004 78.5044ZM249.014 78.2548H250.334V64.6759H249.014V78.2548ZM240.168 78.2548H241.488V65.8826H245.896V64.6751H235.762V65.8826H240.17V78.2548H240.168ZM226.963 72.9188L229.308 66.1739H229.346L231.686 72.9188H226.963ZM223.829 78.2548H225.103L226.555 74.073H232.087L233.539 78.2548H234.909L230.077 64.6335H228.658L223.829 78.2548ZM210.112 78.2548H211.351V66.7115H211.383L219.148 78.2415H220.307V64.6759H219.073V75.8581H219.035L211.515 64.6759H210.112V78.2548ZM197.568 71.0072V65.8476H200.737C203.025 65.8476 204.278 66.5034 204.278 68.3825C204.278 70.3506 203.004 70.9831 200.759 70.9831L197.568 71.0072ZM196.281 78.2548H197.568V72.1532H200.957L204.294 78.2423H205.77L202.323 72.005C204.303 71.6397 205.585 70.542 205.585 68.3417C205.585 65.9575 203.889 64.6759 200.847 64.6759H196.272L196.281 78.2548ZM184.203 78.2548H192.731V77.0581H185.505V71.6563H190.615V70.4821H185.505V65.8868H192.348V64.6792H184.199L184.203 78.2548ZM175.536 78.2548H176.856V65.8826H181.264V64.6751H171.126V65.8826H175.53L175.536 78.2548ZM157.984 78.2548H159.224V66.7115H159.262L167.019 78.2415H168.185V64.6759H166.947V75.8581H166.911L159.389 64.6759H157.985L157.984 78.2548ZM151.961 78.2548H153.281V64.6759H151.961V78.2548Z" fill="white"/>
<path d="M2.68331 14.1477H6.21611V33.8815L23.8106 14.1477H28.1486L15.5139 27.9962L29.9899 50.7525H25.9097L13.1277 30.73L6.21444 38.2338V50.7525H2.68164L2.68331 14.1477Z" fill="white"/>
<path d="M32.1758 37.7355C32.1758 29.0308 37.6001 24.1866 44.0606 24.1866C50.521 24.1866 55.8985 29.0308 55.8985 37.7355C55.8985 46.392 50.4783 51.2844 44.0606 51.2844C37.6419 51.2861 32.1758 46.3895 32.1758 37.7355ZM52.472 37.6872C52.472 31.9984 49.5862 27.1043 44.0631 27.1043C38.7425 27.1043 35.6081 31.5548 35.6081 37.6872C35.6081 43.4743 38.4438 48.3692 44.0631 48.3692C49.3351 48.3684 52.472 43.9661 52.472 37.6872ZM37.6486 17.8528H41.4786V21.9097H37.6486V17.8528ZM46.4032 17.8528H50.2197V21.9097H46.3898L46.4032 17.8528Z" fill="white"/>
<path d="M62.6641 14.1477H66.0972V50.7525H62.6641V14.1477Z" fill="white"/>
<path d="M74.3174 24.6784H77.7464V28.7836C80.2849 26.312 83.6151 24.1882 87.7455 24.1882C92.9145 24.1882 95.5518 27.0576 95.5518 31.9018V50.7501H92.1186V32.5434C92.1186 28.8843 90.469 27.1042 86.8968 27.1042C83.5164 27.1042 80.6808 28.8344 77.7464 31.653V50.751H74.3174C74.3174 50.7501 74.3174 24.6784 74.3174 24.6784Z" fill="white"/>
</g>
<defs>
<clipPath id="clip0_383_260">
<rect width="385" height="81" fill="white"/>
</clipPath>
</defs>
</svg>
