<svg width="351" height="73" viewBox="0 0 351 73" fill="none" xmlns="http://www.w3.org/2000/svg">
<g clip-path="url(#clip0_383_165)">
<path d="M351 58.8304C351 54.7156 348.897 52.6844 344.376 50.6183L340.45 48.8323C337.068 47.3089 335.631 45.8731 335.631 43.2642C335.631 39.9198 338.155 38.8692 342.29 38.8692C345.094 38.8692 348.354 39.1844 350.036 39.377V37.2758C348.669 36.9957 345.445 36.5754 342.22 36.5754C336.227 36.5754 333.037 38.6416 333.037 43.2642C333.037 47.1864 335.403 49.2175 339.311 51.0035L343.237 52.8245C347.057 54.6105 348.371 55.9763 348.371 58.8129C348.371 62.7351 345.918 64.1709 341.677 64.1709C338.453 64.1709 335.596 63.9082 333.651 63.6631V65.7292C334.93 66.0094 338.277 66.4296 341.677 66.4296C347.846 66.4471 351 63.8382 351 58.8304ZM325.817 53.5424V37.0482H323.241V53.2623C323.241 60.844 321.366 64.0833 315.653 64.0833C309.852 64.0833 308.065 60.8965 308.065 53.2623V37.0482H305.454V53.5424C305.454 62.1047 308.573 66.4121 315.653 66.4121C322.663 66.4121 325.817 62.0872 325.817 53.5424ZM293.66 53.3498H284.284L287.631 43.6669C288.104 42.1961 288.49 40.7953 288.875 39.1844H289.138C289.489 40.7778 289.874 42.1786 290.383 43.6669L293.66 53.3498ZM300.634 65.9394L290.856 37.0482H287.246L277.432 65.9394H280.078L283.495 55.7136H294.466L297.848 65.9394H300.634ZM271.281 65.9394V37.0482H268.67V49.3751H252.95V37.0482H250.339V65.9394H252.95V51.7389H268.67V65.9394H271.281Z" fill="white"/>
<path d="M243.628 65.957V37.0659H240.246L233.271 50.2857C232.728 51.4064 232.097 52.6145 231.553 53.7877H231.483C230.94 52.6671 230.362 51.4589 229.766 50.3208L222.879 37.0659H219.461V65.957H222.038V44.9978C222.038 43.2468 222.002 42.1262 221.915 40.4803H221.985C222.651 41.7585 223.317 43.0542 223.93 44.3324L229.889 55.6963H233.166L239.194 44.3324C239.86 43.0542 240.508 41.846 241.139 40.4803H241.209C241.139 42.1087 241.052 43.2818 241.052 44.9978V65.957H243.628ZM211.085 53.5601V37.0659H208.509V53.2799C208.509 60.8617 206.633 64.101 200.92 64.101C195.12 64.101 193.332 60.9142 193.332 53.2799V37.0659H190.721V53.5601C190.721 62.1224 193.84 66.4298 200.92 66.4298C207.93 66.4298 211.085 62.1048 211.085 53.5601ZM184.5 39.3947V37.0659H163.172V39.3947H172.513V65.957H175.124V39.3947H184.5ZM156.758 66.0095V37.0659H154.27V58.1827C154.27 59.6535 154.305 61.4045 154.393 63.243H154.358C153.727 61.9648 152.991 60.4414 152.377 59.2683L140.163 37.0659H136.465V65.957H138.918V44.49C138.918 42.8091 138.883 41.1106 138.796 39.5172H138.831C139.497 40.918 140.233 42.3188 140.899 43.562L153.078 66.0095H156.758ZM123.286 53.3675H113.911L117.258 43.6846C117.731 42.2137 118.117 40.8129 118.502 39.2196H118.783C119.133 40.8129 119.519 42.2137 120.027 43.6846L123.286 53.3675ZM130.244 65.957L120.483 37.0659H116.855L107.041 65.957H109.687L113.105 55.7313H124.075L127.457 65.957H130.244ZM102.257 53.5601V37.0659H99.6808V53.2799C99.6808 60.8617 97.8057 64.101 92.0927 64.101C86.292 64.101 84.5045 60.9142 84.5045 53.2799V37.0659H81.8934V53.5601C81.8934 62.1224 85.0127 66.4298 92.0927 66.4298C99.1025 66.4298 102.257 62.1048 102.257 53.5601ZM72.0971 53.0523C72.0971 61.422 68.6273 64.136 63.808 64.136C58.9887 64.136 55.4838 61.422 55.4838 53.0523V50.0231C55.4838 41.6709 58.9537 38.9394 63.808 38.9394C68.6273 38.9394 72.0971 41.6709 72.0971 50.0231V53.0523ZM74.7083 53.0523V50.0231C74.7083 40.883 70.6952 36.6106 63.808 36.6106C56.8858 36.6106 52.8727 40.883 52.8727 50.0231V53.0523C52.8727 61.6846 56.4477 65.8519 62.5287 66.3947V68.6535C62.5287 72.313 64.0534 73.4337 67.3129 73.4337C68.7499 73.4337 70.6601 73.2411 71.291 73.1185V71.3325H67.9789C65.4553 71.3325 65.1048 70.5971 65.1048 68.6535V66.3947C71.1158 65.8519 74.7083 61.6496 74.7083 53.0523ZM35.6986 65.957V37.0659H32.3163L25.359 50.2857C24.8158 51.4064 24.1849 52.6145 23.6416 53.7877H23.5715C23.0283 52.6671 22.4324 51.4589 21.8541 50.3208L14.967 37.0659H11.5497V65.957H14.1258V44.9978C14.1258 43.2468 14.0907 42.1262 14.0031 40.4803H14.0732C14.7392 41.7585 15.4051 43.0542 16.0184 44.3324L21.9768 55.6963H25.2539L31.2824 44.3324C31.9483 43.0542 32.6142 41.846 33.2276 40.4803H33.2977C33.2276 42.1087 33.14 43.2818 33.14 44.9978V65.957H35.6986ZM2.92758 37.0659H0.316406V65.957H2.92758V37.0659Z" fill="white"/>
<path d="M82.4532 28.0657V12.9372H77.2834V24.1085C76.267 24.1785 74.83 24.2311 73.393 24.2311C68.7139 24.2311 66.313 22.5676 66.313 15.9489V11.8691C66.313 4.67262 69.3448 3.62204 74.0589 3.62204C76.0392 3.62204 80.5605 3.84966 82.4357 4.00725V-0.160078C81.5419 -0.440234 77.3711 -1.14062 73.1301 -1.14062C67.1367 -1.14062 60.9155 0.802962 60.9155 11.8516V15.9314C60.9155 26.3848 66.4007 28.9587 73.025 28.9587C77.1608 28.9587 80.8585 28.4159 82.4532 28.0657ZM58.427 28.3459L46.5628 13.6902L58.5146 -0.545292H51.9779L40.8498 12.9022V-0.562802H35.3997V28.3283H40.8498V14.7232L51.5924 28.3283H58.427V28.3459ZM27.1281 28.3459V-0.562802H21.2048L15.334 10.6785C14.7207 11.8516 14.0898 13.1649 13.5465 14.4081H13.4764C12.9331 13.1999 12.3023 11.8867 11.724 10.7485L5.92332 -0.562802H0V28.3283H5.29243V12.3244C5.29243 10.4509 5.22233 9.17264 5.1347 7.35162H5.2048C5.90579 8.71738 6.4841 10.1182 7.15003 11.3614L11.3559 19.4859H15.6845L19.9605 11.3614C20.6264 10.0831 21.3274 8.78742 21.9408 7.35162H22.0109C21.8882 9.17264 21.8181 10.5034 21.8181 12.3244V28.3459H27.1281Z" fill="white"/>
</g>
<defs>
<clipPath id="clip0_383_165">
<rect width="351" height="73" fill="white"/>
</clipPath>
</defs>
</svg>
