<svg width="200" height="33" viewBox="0 0 200 33" fill="none" xmlns="http://www.w3.org/2000/svg">
<path d="M58.2928 20.5839C58.2928 26.2395 55.8638 28.9167 51.1006 28.9167C45.9943 28.9167 43.7078 26.2395 43.7078 20.5839V0.866066L47.9745 0.829102V20.7318C47.9745 23.3615 48.7191 24.7979 51.1006 24.7979C53.4347 24.7979 54.2268 23.3562 54.2268 20.7318V0.829102H58.2928V20.5839Z" fill="#7C92A6"/>
<path d="M73.5798 12.6733C72.8352 7.96297 72.5976 6.72202 72.5448 6.52664H71.5943C71.5467 6.7273 71.3936 7.91545 70.6015 12.6733L69.6563 18.8252H74.5673L73.5798 12.6733ZM69.0649 22.5428L68.1196 28.6472H64.0007L68.9592 0.871094H75.4597L80.3707 28.6472H76.1039L75.164 22.5428H69.0649Z" fill="#7C92A6"/>
<path d="M92.1469 14.3102C94.3806 14.3102 95.8697 12.7735 95.8697 9.6474C95.8697 6.42094 94.4334 5.03213 91.904 5.03213H90.267V14.3102H92.1469ZM92.4426 17.7796H91.302H90.2089V28.6418H86.0425V0.865723H92.5376C97.6493 0.865723 100.126 4.24004 100.126 9.39921C100.126 13.3702 98.5892 15.7465 96.2077 16.6917L100.226 28.6471H95.7641L92.4426 17.7796Z" fill="#7C92A6"/>
<path d="M106.785 0.865723H119.384V5.03213H111.051V12.3247H117.298V16.4911H111.051V24.4754H119.585V28.6418H106.785V0.865723Z" fill="#7C92A6"/>
<path d="M129.681 28.6418L124.623 0.865723H129.185L131.514 14.9016C132.654 21.7453 132.702 22.8859 132.755 22.9863H133.489C133.489 22.8859 133.6 21.7506 134.693 14.9016L137.027 0.913248H141.146L136.235 28.6418H129.681Z" fill="#7C92A6"/>
<path d="M146.933 0.865723H159.532V5.03213H151.194V12.3247H157.446V16.4911H151.194V24.4754H159.728V28.6418H146.933V0.865723Z" fill="#7C92A6"/>
<path d="M193.904 4.69424V28.3039H189.638V4.69424H184.283V0.527832H199.259V4.69424H193.904Z" fill="#7C92A6"/>
<path d="M3.82286 21.0803C3.97072 23.5622 5.01628 25.1464 7.19718 25.1464C9.23022 25.1464 10.223 23.9054 10.223 21.8248C10.223 19.2426 8.73384 18.0069 6.30476 16.3171C4.12386 14.828 0.501352 12.6471 0.501352 7.23976C0.501352 2.77763 2.93044 0.343262 7.19718 0.343262C11.3161 0.343262 13.9933 2.62449 14.194 7.34009L10.4712 8.33284C10.2705 5.65557 9.37808 4.3671 7.44537 4.3671C5.76085 4.3671 4.62024 5.35985 4.62024 7.39289C4.62024 9.92231 6.25723 10.9626 9.13517 12.9006C12.0131 14.7858 14.3947 17.2149 14.3947 21.7826C14.3947 26.7939 11.6171 29.1755 7.24999 29.1755C3.52715 29.1755 0.353494 27.3906 0.0102539 22.1311L3.82286 21.0803Z" fill="#7C92A6"/>
<path d="M0.00528074 21.0801H3.82317C3.82317 21.0801 2.70368 22.2682 2.58222 22.2682C2.46077 22.2682 0.0580872 22.358 0.0580872 22.358L0 22.1204V21.0801H0.00528074Z" fill="#7C92A6"/>
<path d="M11.5115 8.05273L14.1888 7.33984V8.3326H10.4712L11.5115 8.05273Z" fill="#7C92A6"/>
<path d="M25.0307 2.09668H20.7639V28.6054H25.0307V2.09668Z" fill="#7C92A6"/>
<path d="M37.1598 2.09668H32.8931V24.534H37.1598V2.09668Z" fill="#7C92A6"/>
<path d="M37.155 0.829102H20.7639V5.09584H37.155V0.829102Z" fill="#7C92A6"/>
<path d="M36.5899 24.3384H20.7639V28.6051H36.5899V24.3384Z" fill="#7C92A6"/>
<path d="M32.8927 24.3384H28.626V28.6051H32.8927V32.8719H37.1595V28.6051V24.3384H32.8927Z" fill="#7C92A6"/>
<path d="M37.1598 28.6053H41.4213V24.3385H37.1598V20.0718H32.8931V24.3385V28.6053H37.1598Z" fill="#7C92A6"/>
<path d="M169.054 20.737C169.202 23.2189 170.242 24.8031 172.428 24.8031C174.461 24.8031 175.454 23.5621 175.454 21.4816C175.454 18.8994 173.965 17.6637 171.536 15.9739C169.355 14.4847 165.732 12.3039 165.732 6.89649C165.732 2.43437 168.161 0 172.428 0C176.547 0 179.224 2.28123 179.425 6.99683L175.702 7.98958C175.501 5.31231 174.609 4.02383 172.676 4.02383C170.992 4.02383 169.851 5.01659 169.851 7.04963C169.851 9.57905 171.488 10.6193 174.366 12.5573C177.244 14.4425 179.626 16.8716 179.626 21.4393C179.626 26.4506 176.848 28.8322 172.481 28.8322C168.758 28.8322 165.584 27.0474 165.241 21.7879L169.054 20.737Z" fill="#7C92A6"/>
<path d="M165.23 20.7368H169.048C169.048 20.7368 167.929 21.925 167.807 21.925C167.686 21.925 165.283 22.0147 165.283 22.0147L165.225 21.7771V20.7368H165.23Z" fill="#7C92A6"/>
<path d="M176.742 7.71484L179.419 7.00195V7.98943H175.697L176.742 7.71484Z" fill="#7C92A6"/>
</svg>
