<svg width="315" height="84" viewBox="0 0 315 84" fill="none" xmlns="http://www.w3.org/2000/svg">
<path d="M200.264 78.3911V68.8101H203.771C204.846 68.8101 205.674 69.005 206.25 69.3971C206.829 69.7893 207.117 70.3419 207.117 71.0551C207.117 71.5711 206.942 72.0228 206.589 72.4104C206.236 72.7979 205.789 73.0685 205.242 73.2199V73.2474C205.927 73.3323 206.476 73.5845 206.884 74.0019C207.295 74.4215 207.5 74.9306 207.5 75.5314C207.5 76.4097 207.184 77.1046 206.552 77.6182C205.92 78.1319 205.058 78.3911 203.965 78.3911H200.264ZM202.434 70.4015V72.6741H203.388C203.836 72.6741 204.188 72.5663 204.447 72.3508C204.705 72.1352 204.834 71.8371 204.834 71.4587C204.834 70.7547 204.306 70.4038 203.248 70.4038H202.434V70.4015ZM202.434 74.2748V76.7996H203.61C204.112 76.7996 204.504 76.6826 204.788 76.451C205.072 76.2194 205.215 75.9029 205.215 75.5016C205.215 75.1187 205.074 74.8182 204.795 74.6004C204.516 74.3825 204.124 74.2725 203.624 74.2725H202.434V74.2748Z" fill="white"/>
<path d="M221.094 78.3911H218.728L218.043 76.2607H214.616L213.938 78.3911H211.586L215.093 68.8101H217.667L221.094 78.3911ZM217.545 74.6027L216.509 71.383C216.433 71.1422 216.38 70.8556 216.348 70.5208H216.295C216.272 70.8006 216.216 71.0803 216.126 71.3555L215.077 74.6027H217.545Z" fill="white"/>
<path d="M233.687 74.2426C233.687 77.1205 232.338 78.5584 229.643 78.5584C227.028 78.5584 225.718 77.1526 225.718 74.3435V68.8123H227.895V74.371C227.895 75.9212 228.503 76.6963 229.721 76.6963C230.918 76.6963 231.515 75.9487 231.515 74.4512V68.8123H233.685V74.2426H233.687Z" fill="white"/>
<path d="M250.298 78.391H248.155V72.658C248.155 72.0389 248.183 71.3555 248.236 70.6079H248.183C248.07 71.195 247.971 71.6192 247.881 71.8784L245.623 78.3933H243.85L241.553 71.9449C241.491 71.7706 241.389 71.3257 241.251 70.6079H241.191C241.249 71.5527 241.279 72.3806 241.279 73.0938V78.391H239.323V68.8101H242.501L244.47 74.4903C244.627 74.9444 244.742 75.4007 244.814 75.8593H244.853C244.973 75.3296 245.102 74.8687 245.236 74.4765L247.205 68.8101H250.302V78.391H250.298Z" fill="white"/>
<path d="M264.495 78.3911H262.129L261.444 76.2607H258.017L257.339 78.3911H254.987L258.495 68.8101H261.068L264.495 78.3911ZM260.948 74.6027L259.913 71.383C259.837 71.1422 259.784 70.8556 259.752 70.5208H259.698C259.675 70.8006 259.62 71.0803 259.53 71.3555L258.481 74.6027H260.948Z" fill="white"/>
<path d="M277.319 78.3911H274.826L273.328 75.9259C273.215 75.7378 273.108 75.5727 273.005 75.4236C272.901 75.2769 272.797 75.1508 272.693 75.0453C272.587 74.9398 272.479 74.8595 272.364 74.8045C272.248 74.7494 272.126 74.7219 271.99 74.7219H271.404V78.3911H269.234V68.8101H272.675C275.013 68.8101 276.182 69.6792 276.182 71.4151C276.182 71.7499 276.132 72.0572 276.028 72.3416C275.924 72.6237 275.779 72.8805 275.592 73.1075C275.403 73.3345 275.177 73.5318 274.909 73.6946C274.642 73.8597 274.347 73.9881 274.019 74.0821V74.1096C274.162 74.1532 274.301 74.2266 274.437 74.3275C274.57 74.4284 274.702 74.5454 274.826 74.6784C274.951 74.8114 275.071 74.9558 275.186 75.1095C275.301 75.2631 275.405 75.4145 275.5 75.5612L277.319 78.3911ZM271.407 70.4268V73.0938H272.347C272.813 73.0938 273.187 72.9608 273.471 72.6924C273.756 72.4218 273.899 72.0847 273.899 71.6834C273.899 70.8464 273.394 70.4268 272.387 70.4268H271.407Z" fill="white"/>
<path d="M289.764 78.3911H287.022L284.213 74.2289C284.16 74.1486 284.075 73.9721 283.957 73.7015H283.923V78.3911H281.753V68.8101H283.923V73.3391H283.957C284.011 73.2153 284.1 73.0364 284.227 72.8048L286.888 68.8101H289.476L286.116 73.3804L289.764 78.3911Z" fill="white"/>
<path d="M300.985 70.5667H298.236V78.3911H296.059V70.5667H293.324V68.8101H300.983V70.5667H300.985Z" fill="white"/>
<path d="M77.4247 4.66675H17.1158C14.6023 4.66675 12.5684 6.69165 12.5684 9.18894V77.9323C12.5684 80.4227 14.6046 82.4453 17.1158 82.4453H77.4247C79.9382 82.4453 81.9721 80.4227 81.9721 77.9323V9.18665C81.9721 6.68935 79.9382 4.66675 77.4247 4.66675ZM32.0126 12.7916L47.2714 27.9657L62.5302 12.7916H73.2485L47.2714 38.6337L21.2943 12.7916H32.0126ZM73.2554 33.3111L57.9897 48.4853L73.2554 63.6594V74.3182L47.2714 48.4853L21.2874 74.3182V63.6594L36.5439 48.4853L21.2874 33.3111V22.6523L47.2714 48.4853L73.2554 22.6523V33.3111Z" fill="white"/>
<path d="M130.096 12.0945L123.614 32.7631C122.516 36.4437 121.596 39.6244 120.842 42.9725H120.581C119.827 39.6244 118.981 36.3612 117.81 32.7631L111.161 12.0945H99.9727L115.197 52.8493H125.38L141.031 12.0945H130.096Z" fill="white"/>
<path d="M181.086 31.0065C181.086 22.0538 176.714 11.1794 163.418 11.1794C150.296 11.1794 143.395 21.8061 143.395 33.0979C143.395 45.5637 151.216 53.684 164.513 53.684C170.4 53.684 175.282 52.5924 178.815 51.1775L177.3 44.0663C174.184 45.2312 170.734 45.9077 165.945 45.9077C159.38 45.9077 153.576 42.727 153.317 35.3658H180.749C180.918 34.4371 181.086 32.9282 181.086 31.0065ZM153.317 28.1583C153.744 23.9778 156.433 18.2081 162.83 18.2081C169.729 18.2081 171.412 24.3952 171.329 28.1583H153.317Z" fill="white"/>
<path d="M209.699 11.1772C205.32 11.1772 200.53 14.1011 198.503 19.88H198.169L197.835 12.0945H188.832C189.083 15.7751 189.166 19.7148 189.166 25.2346V52.8493H199.516V31.7564C199.516 30.5915 199.684 29.4999 199.85 28.5827C200.779 23.9779 204.146 20.7972 209.111 20.7972C210.368 20.7972 211.297 20.9646 212.134 21.1297V11.4272C211.299 11.2621 210.711 11.1772 209.699 11.1772Z" fill="white"/>
<path d="M238.388 11.1772C226.019 11.1772 217.185 19.3709 217.185 32.7632C217.185 45.8206 226.102 53.7643 237.717 53.7643C248.152 53.7643 258.753 47.0681 258.753 32.0958C258.755 19.7125 250.599 11.1772 238.388 11.1772ZM238.054 46.3206C231.749 46.3206 227.871 40.3743 227.871 32.5132C227.871 25.7345 230.818 18.7058 238.137 18.7058C245.205 18.7058 248.069 25.9844 248.069 32.3458C248.069 40.5486 243.948 46.3206 238.054 46.3206Z" fill="white"/>
<path d="M288.466 31.6716L302.175 12.0945H290.903L286.356 19.6231C285.184 21.7213 284.004 23.8127 282.823 26.0693H282.572C281.391 23.9802 280.22 21.9713 278.871 19.7996L273.989 12.0968H262.466L276.175 32.1004L261.956 52.8516H273.403L278.117 44.7313C279.456 42.4748 280.637 40.4683 281.818 38.12H281.986C283.167 40.3766 284.338 42.5574 285.687 44.7313L290.737 52.8516H302.436L288.466 31.6716Z" fill="white"/>
</svg>
